<?xml version="1.0" encoding="utf-8"?>
<!-- Generator: Adobe Illustrator 18.1.1, SVG Export Plug-In . SVG Version: 6.00 Build 0)  -->
<svg version="1.1" id="Layer_1" xmlns="http://www.w3.org/2000/svg" xmlns:xlink="http://www.w3.org/1999/xlink" x="0px" y="0px"
	 viewBox="0 0 116.5 83.2" enable-background="new 0 0 116.5 83.2" xml:space="preserve">
<g>
	<path fill="#EFEFF0" d="M70,6.5c-0.8-0.2-1.6-0.3-2.5-0.3c-9.3,0-25,12.1-29.5,31.7l-0.3,1.4l1.4,0.1c0.1,0,0.3,0,0.5,0
		c9.3,0,29.4-13.6,31.3-31.6l0.1-1L70,6.5z M40.6,36.9C45.2,19.5,59.3,8.5,67.4,8.5c0.3,0,0.6,0,0.9,0.1
		C66,23.6,49.4,35.9,40.6,36.9z"/>
	<path fill="#EFEFF0" d="M29.5,3.1c4.8,8.2,6.1,22.1,3.3,36c-1.9,9.4-7.4,26.8-22.4,38.7C3.2,59.4,7.3,15.7,29.5,3.1 M15.8,83.2
		c18.4-8.9,31.5-19.4,39-31.3C70.5,27,85.8,14.9,101.5,14.9c2.8,0,5.7,0.4,8.5,1.2c-1.6,10.4-7.3,19.9-16.5,27.6
		C81,54,65.1,58.7,55.7,58.7c-1.7,0-3,1.3-3,3c0,1.7,1.3,3,3,3c10.5,0,28-5.1,41.6-16.4c11.2-9.2,17.7-21,19-33.9l0.2-2.3l-2.2-0.8
		c-4.3-1.5-8.6-2.3-12.9-2.3c-17.9,0-34.8,13-51.6,39.7c-6.6,10.4-18.1,19.8-34.3,27.7C38,55,41.4,16.8,30.8,0.9L30.3,0l-0.9,0.5
		C4.4,13.4,0.3,60.4,8.6,79.6c-1.9,0.8-3.9,1.7-5.9,2.5L0,83.2H15.8z M113.9,14.1c-1.2,12.4-7.5,23.6-18.1,32.4
		C82.6,57.4,65.7,62.3,55.7,62.3c-0.6,0-0.6-0.4-0.6-0.7c0-0.2,0.1-0.4,0.2-0.5c0-0.1,0.2-0.2,0.5-0.2C65.5,61,82,56.1,95,45.4
		c9.9-8.2,16-18.6,17.5-30l0.1-1l-0.9-0.3c-3.4-1.1-6.8-1.6-10.2-1.6c-16.6,0-32.5,12.4-48.7,38c-7.6,12-21,22.5-40,31.4H9
		c20.6-8.9,35-19.7,42.8-32.1c16.4-26,32.6-38.6,49.7-38.6c4,0,8.1,0.7,12.1,2.1l0.5,0.2L113.9,14.1z"/>
</g>
</svg>
