<?xml version="1.0" encoding="utf-8"?>
<!-- Generator: Adobe Illustrator 18.1.1, SVG Export Plug-In . SVG Version: 6.00 Build 0)  -->
<svg version="1.1" id="Layer_1" xmlns="http://www.w3.org/2000/svg" xmlns:xlink="http://www.w3.org/1999/xlink" x="0px" y="0px"
	 viewBox="0 0 201.4 95.1" enable-background="new 0 0 201.4 95.1" xml:space="preserve">
<polygon points="33.9,73.7 22.7,40.7 29.4,40.8 49.1,95.1 41.5,95.1 36.1,79.9 "/>
<path fill="#73A950" d="M85.9,48.4C102.4,36.1,105.1,10.2,98.3,0C83.2,7.9,80.8,37.2,85.9,48.4"/>
<path fill="#73A950" d="M104,22.7c2.9-12.5,13.6-20.4,19-18.9C121.8,14.5,109.6,23,104,22.7"/>
<path d="M30.4,66.4C17.6,69.6,8.1,76.2,7.3,95.1H4.4H0h0l0-0.1c0.5-13.1,8.3-23.9,15-32.3l3.9-0.1c-1.8,2.3-3.6,4.8-5.4,7.4
	c4.7-3.4,10.2-5.2,16.2-6.4c3.7-0.7,7.3-1.4,11-2c26.7-4.8,59.1-13.7,70.6-32c9.5-15.1,22.7-28.7,39.1-22.9l0.8,0.3l-0.1,0.9
	c-0.9,8.8-5.5,15.6-11.5,20.6c-8.2,6.8-18.9,10-25.3,10c-1.5,0-1.5-2.3,0-2.3c6.1,0,16.1-3.1,23.9-9.5c5.4-4.4,9.6-10.4,10.6-18.1
	c-14.9-4.6-26.9,8.5-35.6,22.3c-11.9,18.8-44.2,28.4-71.6,33.4C37.8,64.8,34.1,65.5,30.4,66.4"/>
<path d="M75.6,94.4h-3.9V81.2c0-1.1-0.1-2.1-0.2-3c-0.1-0.9-0.4-1.7-0.7-2.2c-0.3-0.6-0.8-1-1.5-1.3c-0.7-0.3-1.5-0.4-2.5-0.4
	c-1.1,0-2.2,0.3-3.3,0.8c-1.2,0.5-2.3,1.2-3.3,2v17.3h-3.9V71.2h3.9v2.6c1.2-1,2.5-1.8,3.8-2.4c1.3-0.6,2.6-0.9,4-0.9
	c2.5,0,4.4,0.8,5.7,2.3c1.3,1.5,2,3.7,2,6.5V94.4z"/>
<path d="M97.2,88.7v-6.5c-1.2,0.1-2.6,0.2-4.2,0.3c-1.6,0.1-2.9,0.3-3.8,0.6c-1.1,0.3-2,0.8-2.7,1.5c-0.7,0.7-1,1.6-1,2.8
	c0,1.3,0.4,2.3,1.2,3c0.8,0.7,2,1,3.7,1c1.4,0,2.6-0.3,3.8-0.8C95.2,90.1,96.3,89.4,97.2,88.7 M101.1,94.4h-3.9v-2.5
	c-0.3,0.2-0.8,0.6-1.4,1c-0.6,0.4-1.2,0.8-1.7,1c-0.7,0.3-1.4,0.6-2.2,0.8c-0.8,0.2-1.8,0.3-3,0.3c-2.1,0-3.9-0.7-5.3-2.1
	c-1.5-1.4-2.2-3.1-2.2-5.3c0-1.8,0.4-3.2,1.1-4.3c0.8-1.1,1.8-1.9,3.2-2.6c1.4-0.6,3.1-1,5.1-1.3c2-0.2,4.1-0.4,6.4-0.5v-0.6
	c0-0.9-0.2-1.6-0.5-2.2c-0.3-0.6-0.8-1-1.3-1.4c-0.6-0.3-1.2-0.5-2-0.6c-0.8-0.1-1.6-0.2-2.4-0.2c-1,0-2.2,0.1-3.4,0.4
	c-1.3,0.3-2.6,0.7-3.9,1.2h-0.2v-4c0.8-0.2,1.9-0.4,3.3-0.7c1.4-0.2,2.9-0.4,4.3-0.4c1.6,0,3.1,0.1,4.3,0.4c1.2,0.3,2.3,0.7,3.1,1.4
	c0.9,0.6,1.5,1.5,2,2.5c0.5,1,0.7,2.3,0.7,3.8V94.4z"/>
<path d="M125.2,87.7c0,2.1-0.9,3.9-2.6,5.2c-1.8,1.4-4.1,2-7.2,2c-1.7,0-3.3-0.2-4.7-0.6c-1.4-0.4-2.6-0.9-3.6-1.3v-4.4h0.2
	c1.2,0.9,2.6,1.7,4.1,2.2c1.5,0.5,3,0.8,4.3,0.8c1.7,0,3.1-0.3,4-0.8c1-0.6,1.5-1.4,1.5-2.6c0-0.9-0.3-1.6-0.8-2.1
	c-0.5-0.5-1.5-0.9-3-1.2c-0.6-0.1-1.3-0.3-2.2-0.4c-0.9-0.2-1.7-0.3-2.4-0.5c-2-0.5-3.5-1.3-4.3-2.4c-0.9-1-1.3-2.3-1.3-3.9
	c0-1,0.2-1.9,0.6-2.7c0.4-0.8,1-1.6,1.8-2.3c0.8-0.7,1.8-1.2,3-1.5c1.2-0.4,2.5-0.6,4-0.6c1.4,0,2.8,0.2,4.2,0.5
	c1.4,0.3,2.6,0.8,3.5,1.2v4.2h-0.2c-1-0.7-2.2-1.4-3.6-1.9c-1.4-0.5-2.8-0.8-4.2-0.8c-1.4,0-2.6,0.3-3.6,0.8c-1,0.5-1.5,1.4-1.5,2.4
	c0,1,0.3,1.7,0.9,2.2c0.6,0.5,1.5,0.9,2.8,1.2c0.7,0.2,1.5,0.3,2.4,0.5c0.9,0.2,1.6,0.3,2.2,0.5c1.8,0.4,3.2,1.1,4.2,2.1
	C124.7,84.7,125.2,86,125.2,87.7"/>
<path d="M142.9,94.2c-0.7,0.2-1.5,0.4-2.4,0.5c-0.9,0.1-1.6,0.2-2.3,0.2c-2.4,0-4.2-0.6-5.4-1.9c-1.2-1.3-1.9-3.3-1.9-6.1V74.5h-2.6
	v-3.3h2.6v-6.7h3.9v6.7h8.1v3.3h-8.1v10.6c0,1.2,0,2.2,0.1,2.9c0.1,0.7,0.2,1.3,0.6,1.9c0.3,0.6,0.7,1,1.3,1.2
	c0.5,0.3,1.3,0.4,2.4,0.4c0.6,0,1.3-0.1,2-0.3c0.7-0.2,1.2-0.3,1.5-0.5h0.2V94.2z"/>
<path d="M161.7,88.7v-6.5c-1.2,0.1-2.6,0.2-4.2,0.3c-1.6,0.1-2.9,0.3-3.8,0.6c-1.1,0.3-2,0.8-2.7,1.5c-0.7,0.7-1,1.6-1,2.8
	c0,1.3,0.4,2.3,1.2,3c0.8,0.7,2,1,3.7,1c1.4,0,2.6-0.3,3.8-0.8C159.7,90.1,160.7,89.4,161.7,88.7 M165.6,94.4h-3.9v-2.5
	c-0.3,0.2-0.8,0.6-1.4,1c-0.6,0.4-1.2,0.8-1.7,1c-0.7,0.3-1.4,0.6-2.2,0.8c-0.8,0.2-1.8,0.3-3,0.3c-2.1,0-3.9-0.7-5.3-2.1
	c-1.5-1.4-2.2-3.1-2.2-5.3c0-1.8,0.4-3.2,1.1-4.3c0.8-1.1,1.8-1.9,3.2-2.6c1.4-0.6,3.1-1,5.1-1.3c2-0.2,4.1-0.4,6.4-0.5v-0.6
	c0-0.9-0.2-1.6-0.5-2.2c-0.3-0.6-0.8-1-1.3-1.4c-0.6-0.3-1.2-0.5-2-0.6c-0.8-0.1-1.6-0.2-2.4-0.2c-1,0-2.2,0.1-3.4,0.4
	c-1.3,0.3-2.6,0.7-3.9,1.2h-0.2v-4c0.8-0.2,1.9-0.4,3.3-0.7c1.4-0.2,2.9-0.4,4.3-0.4c1.6,0,3.1,0.1,4.3,0.4c1.2,0.3,2.3,0.7,3.1,1.4
	c0.9,0.6,1.5,1.5,2,2.5c0.5,1,0.7,2.3,0.7,3.8V94.4z"/>
<path d="M177.1,94.4h-3.9V71.2h3.9V94.4z M177.3,67.3h-4.4v-4h4.4V67.3z"/>
<path d="M201.4,87.7c0,2.1-0.9,3.9-2.6,5.2c-1.8,1.4-4.1,2-7.2,2c-1.7,0-3.3-0.2-4.7-0.6c-1.4-0.4-2.6-0.9-3.6-1.3v-4.4h0.2
	c1.2,0.9,2.6,1.7,4.1,2.2c1.5,0.5,3,0.8,4.3,0.8c1.7,0,3.1-0.3,4-0.8c1-0.6,1.5-1.4,1.5-2.6c0-0.9-0.3-1.6-0.8-2.1
	c-0.5-0.5-1.5-0.9-3-1.2c-0.6-0.1-1.3-0.3-2.2-0.4c-0.9-0.2-1.7-0.3-2.4-0.5c-2-0.5-3.5-1.3-4.3-2.4c-0.9-1-1.3-2.3-1.3-3.9
	c0-1,0.2-1.9,0.6-2.7c0.4-0.8,1-1.6,1.8-2.3c0.8-0.7,1.8-1.2,3-1.5c1.2-0.4,2.5-0.6,4-0.6c1.4,0,2.8,0.2,4.2,0.5
	c1.4,0.3,2.6,0.8,3.5,1.2v4.2h-0.2c-1-0.7-2.2-1.4-3.6-1.9c-1.4-0.5-2.8-0.8-4.2-0.8c-1.4,0-2.6,0.3-3.6,0.8c-1,0.5-1.5,1.4-1.5,2.4
	c0,1,0.3,1.7,0.9,2.2c0.6,0.5,1.5,0.9,2.8,1.2c0.7,0.2,1.5,0.3,2.4,0.5c0.9,0.2,1.6,0.3,2.2,0.5c1.8,0.4,3.2,1.1,4.2,2.1
	C200.9,84.7,201.4,86,201.4,87.7"/>
</svg>
