<?xml version="1.0" encoding="utf-8"?>
<!-- Generator: Adobe Illustrator 18.1.1, SVG Export Plug-In . SVG Version: 6.00 Build 0)  -->
<svg version="1.1" id="Layer_1" xmlns="http://www.w3.org/2000/svg" xmlns:xlink="http://www.w3.org/1999/xlink" x="0px" y="0px"
	 viewBox="0 0 173.6 179.7" enable-background="new 0 0 173.6 179.7" xml:space="preserve">
<path fill="none" stroke="#000000" stroke-width="4.5878" stroke-miterlimit="22.9256" d="M162.6,133.6
	c-15.6,27.1-44.6,43.8-75.8,43.8c-31.3,0-60.2-16.7-75.8-43.8"/>
<path fill="none" stroke="#000000" stroke-width="4.5878" stroke-miterlimit="22.9256" d="M2.2,67.2c10.3-38.3,45-64.9,84.6-64.9
	c39.6,0,74.3,26.6,84.6,64.9"/>
<path fill="none" stroke="#000000" stroke-width="1.1652" stroke-miterlimit="22.9256" d="M157.3,130.6
	c-14.5,25.2-41.4,40.7-70.5,40.7c-29.1,0-56-15.5-70.5-40.7"/>
<path fill="none" stroke="#000000" stroke-width="1.1652" stroke-miterlimit="22.9256" d="M8.2,68.8C17.7,33.2,49.9,8.4,86.8,8.4
	c36.8,0,69.1,24.8,78.6,60.3"/>
<polygon points="31.6,86.7 22.2,58.9 27.8,59 44.4,104.6 38,104.6 33.5,91.9 "/>
<path fill="#75B66A" d="M75.3,65.4c13.8-10.3,16.1-32.1,10.4-40.7C73,31.3,71,56,75.3,65.4"/>
<path fill="#75B66A" d="M90.5,43.8c2.4-10.5,11.4-17.1,15.9-15.9C105.5,36.9,95.2,44,90.5,43.8"/>
<path d="M28.7,80.5c-10.8,2.7-18.7,8.2-19.4,24.1H6.8H3.1h0l0-0.1c0.4-11,7-20,12.6-27.1l3.3-0.1c-1.5,1.9-3,4-4.5,6.2
	c3.9-2.8,8.5-4.4,13.6-5.4c3.1-0.6,6.2-1.1,9.3-1.7c22.5-4,49.6-11.5,59.3-26.8c8-12.7,19-24.1,32.9-19.2l0.7,0.2l-0.1,0.7
	c-0.7,7.4-4.7,13.1-9.7,17.3c-6.9,5.7-15.9,8.4-21.3,8.4c-1.2,0-1.2-1.9,0-1.9c5.1,0,13.6-2.6,20.1-8c4.5-3.7,8.1-8.8,8.9-15.2
	C115.6,28,105.5,39,98.2,50.6C88.2,66.4,61,74.5,38,78.6C34.9,79.2,31.8,79.7,28.7,80.5"/>
<path d="M66.6,104h-3.3V92.9c0-0.9-0.1-1.7-0.2-2.5c-0.1-0.8-0.3-1.4-0.6-1.8c-0.3-0.5-0.7-0.9-1.3-1.1c-0.5-0.2-1.3-0.4-2.1-0.4
	c-0.9,0-1.8,0.2-2.8,0.7c-1,0.4-1.9,1-2.8,1.7V104h-3.3V84.5h3.3v2.2c1-0.9,2.1-1.5,3.2-2c1.1-0.5,2.2-0.7,3.4-0.7
	c2.1,0,3.7,0.6,4.8,1.9c1.1,1.3,1.7,3.1,1.7,5.5V104z"/>
<path d="M84.8,99.2v-5.4c-1,0.1-2.2,0.1-3.5,0.3c-1.4,0.1-2.4,0.3-3.2,0.5c-0.9,0.3-1.7,0.7-2.3,1.2c-0.6,0.6-0.9,1.3-0.9,2.3
	c0,1.1,0.3,2,1,2.5s1.7,0.8,3.1,0.8c1.2,0,2.2-0.2,3.2-0.7C83.1,100.4,84,99.9,84.8,99.2 M88.1,104h-3.3V102
	c-0.3,0.2-0.7,0.5-1.2,0.8c-0.5,0.4-1,0.6-1.4,0.8c-0.5,0.3-1.2,0.5-1.9,0.7c-0.7,0.2-1.5,0.3-2.5,0.3c-1.8,0-3.2-0.6-4.5-1.7
	c-1.2-1.2-1.8-2.6-1.8-4.4c0-1.5,0.3-2.7,1-3.6c0.6-0.9,1.5-1.6,2.7-2.2c1.2-0.5,2.6-0.9,4.3-1.1c1.7-0.2,3.4-0.3,5.4-0.4v-0.5
	c0-0.7-0.1-1.4-0.4-1.9c-0.3-0.5-0.6-0.9-1.1-1.2c-0.5-0.3-1-0.4-1.7-0.5C81,87,80.3,87,79.6,87c-0.9,0-1.8,0.1-2.9,0.3
	c-1.1,0.2-2.2,0.6-3.3,1h-0.2v-3.3c0.6-0.2,1.6-0.4,2.8-0.6c1.2-0.2,2.4-0.3,3.6-0.3c1.4,0,2.6,0.1,3.6,0.3c1,0.2,1.9,0.6,2.6,1.2
	c0.7,0.5,1.3,1.2,1.7,2.1c0.4,0.8,0.6,1.9,0.6,3.2V104z"/>
<path d="M108.3,98.4c0,1.8-0.7,3.2-2.2,4.4c-1.5,1.1-3.5,1.7-6,1.7c-1.4,0-2.8-0.2-4-0.5c-1.2-0.3-2.2-0.7-3-1.1v-3.7h0.2
	c1,0.8,2.2,1.4,3.5,1.9c1.3,0.5,2.5,0.7,3.7,0.7c1.4,0,2.6-0.2,3.4-0.7s1.2-1.2,1.2-2.2c0-0.8-0.2-1.4-0.7-1.7
	c-0.4-0.4-1.3-0.7-2.5-1c-0.5-0.1-1.1-0.2-1.8-0.4c-0.8-0.1-1.4-0.3-2-0.5c-1.7-0.5-2.9-1.1-3.6-2c-0.7-0.9-1.1-2-1.1-3.2
	c0-0.8,0.2-1.6,0.5-2.3c0.3-0.7,0.8-1.3,1.5-1.9c0.6-0.5,1.5-1,2.5-1.3c1-0.3,2.1-0.5,3.4-0.5c1.2,0,2.3,0.1,3.5,0.4
	c1.2,0.3,2.2,0.6,3,1V89h-0.2c-0.8-0.6-1.9-1.1-3.1-1.6c-1.2-0.4-2.4-0.6-3.5-0.6c-1.2,0-2.2,0.2-3,0.7c-0.8,0.5-1.2,1.1-1.2,2
	c0,0.8,0.3,1.4,0.8,1.8c0.5,0.4,1.3,0.7,2.4,1c0.6,0.1,1.3,0.3,2,0.4c0.7,0.1,1.4,0.3,1.9,0.4c1.5,0.4,2.7,1,3.5,1.8
	C107.9,95.8,108.3,97,108.3,98.4"/>
<path d="M123.1,103.8c-0.6,0.2-1.3,0.3-2,0.4c-0.7,0.1-1.4,0.2-1.9,0.2c-2,0-3.5-0.5-4.5-1.6c-1-1.1-1.6-2.8-1.6-5.1V87.3h-2.2v-2.8
	h2.2v-5.6h3.3v5.6h6.8v2.8h-6.8v8.9c0,1,0,1.8,0.1,2.4c0,0.6,0.2,1.1,0.5,1.6c0.3,0.5,0.6,0.8,1.1,1c0.4,0.2,1.1,0.3,2,0.3
	c0.5,0,1.1-0.1,1.7-0.2c0.6-0.2,1-0.3,1.3-0.4h0.2V103.8z"/>
<path d="M139,99.2v-5.4c-1,0.1-2.2,0.1-3.5,0.3c-1.4,0.1-2.4,0.3-3.2,0.5c-0.9,0.3-1.7,0.7-2.3,1.2c-0.6,0.6-0.9,1.3-0.9,2.3
	c0,1.1,0.3,2,1,2.5c0.7,0.6,1.7,0.8,3.1,0.8c1.2,0,2.2-0.2,3.2-0.7C137.3,100.4,138.2,99.9,139,99.2 M142.2,104H139V102
	c-0.3,0.2-0.7,0.5-1.2,0.8c-0.5,0.4-1,0.6-1.4,0.8c-0.5,0.3-1.2,0.5-1.9,0.7c-0.7,0.2-1.5,0.3-2.5,0.3c-1.8,0-3.2-0.6-4.5-1.7
	c-1.2-1.2-1.8-2.6-1.8-4.4c0-1.5,0.3-2.7,1-3.6c0.6-0.9,1.5-1.6,2.7-2.2c1.2-0.5,2.6-0.9,4.3-1.1c1.7-0.2,3.4-0.3,5.4-0.4v-0.5
	c0-0.7-0.1-1.4-0.4-1.9c-0.3-0.5-0.6-0.9-1.1-1.2c-0.5-0.3-1-0.4-1.7-0.5c-0.6-0.1-1.3-0.1-2-0.1c-0.9,0-1.8,0.1-2.9,0.3
	c-1.1,0.2-2.2,0.6-3.3,1h-0.2v-3.3c0.6-0.2,1.6-0.4,2.8-0.6c1.2-0.2,2.4-0.3,3.6-0.3c1.4,0,2.6,0.1,3.6,0.3c1,0.2,1.9,0.6,2.6,1.2
	c0.7,0.5,1.3,1.2,1.7,2.1c0.4,0.8,0.6,1.9,0.6,3.2V104z"/>
<path d="M151.9,104h-3.3V84.5h3.3V104z M152.1,81.3h-3.7v-3.4h3.7V81.3z"/>
<path d="M172.3,98.4c0,1.8-0.7,3.2-2.2,4.4c-1.5,1.1-3.5,1.7-6,1.7c-1.4,0-2.8-0.2-4-0.5c-1.2-0.3-2.2-0.7-3-1.1v-3.7h0.2
	c1,0.8,2.2,1.4,3.5,1.9c1.3,0.5,2.5,0.7,3.7,0.7c1.4,0,2.6-0.2,3.4-0.7c0.8-0.5,1.2-1.2,1.2-2.2c0-0.8-0.2-1.4-0.7-1.7
	c-0.4-0.4-1.3-0.7-2.5-1c-0.5-0.1-1.1-0.2-1.8-0.4c-0.8-0.1-1.4-0.3-2-0.5c-1.7-0.5-2.9-1.1-3.6-2c-0.7-0.9-1.1-2-1.1-3.2
	c0-0.8,0.2-1.6,0.5-2.3c0.3-0.7,0.8-1.3,1.5-1.9c0.6-0.5,1.5-1,2.5-1.3c1-0.3,2.1-0.5,3.4-0.5c1.2,0,2.3,0.1,3.5,0.4
	c1.2,0.3,2.2,0.6,3,1V89h-0.2c-0.8-0.6-1.9-1.1-3.1-1.6c-1.2-0.4-2.4-0.6-3.5-0.6c-1.2,0-2.2,0.2-3,0.7c-0.8,0.5-1.2,1.1-1.2,2
	c0,0.8,0.3,1.4,0.8,1.8c0.5,0.4,1.3,0.7,2.4,1c0.6,0.1,1.3,0.3,2,0.4c0.7,0.1,1.4,0.3,1.9,0.4c1.5,0.4,2.7,1,3.5,1.8
	C171.9,95.8,172.3,97,172.3,98.4"/>
<polygon points="13,122 11,122 7.4,118 6.4,118.9 6.4,122 4.9,122 4.9,109.4 6.4,109.4 6.4,117.5 10.8,112.9 12.7,112.9 8.5,117.1 
	"/>
<path d="M20.6,117.5c0-1.2-0.2-2-0.7-2.6c-0.5-0.6-1.1-0.9-1.9-0.9c-0.8,0-1.5,0.3-1.9,0.9c-0.5,0.6-0.7,1.4-0.7,2.6
	c0,1.1,0.2,2,0.7,2.6c0.5,0.6,1.1,0.9,1.9,0.9c0.8,0,1.4-0.3,1.9-0.9C20.4,119.5,20.6,118.6,20.6,117.5 M22.2,117.5
	c0,1.5-0.4,2.6-1.1,3.5c-0.8,0.9-1.8,1.3-3,1.3c-1.3,0-2.3-0.4-3-1.3c-0.8-0.9-1.1-2-1.1-3.5c0-1.5,0.4-2.6,1.1-3.5
	c0.8-0.9,1.8-1.3,3-1.3c1.3,0,2.3,0.4,3,1.3C21.8,114.8,22.2,116,22.2,117.5z"/>
<path d="M31,119.4c0,0.8-0.3,1.5-1,2c-0.7,0.5-1.6,0.8-2.8,0.8c-0.7,0-1.3-0.1-1.8-0.2c-0.6-0.2-1-0.3-1.4-0.5v-1.7H24
	c0.5,0.4,1,0.6,1.6,0.9c0.6,0.2,1.2,0.3,1.7,0.3c0.7,0,1.2-0.1,1.6-0.3c0.4-0.2,0.6-0.6,0.6-1c0-0.4-0.1-0.6-0.3-0.8
	c-0.2-0.2-0.6-0.3-1.2-0.5c-0.2,0-0.5-0.1-0.8-0.2c-0.3-0.1-0.7-0.1-0.9-0.2c-0.8-0.2-1.4-0.5-1.7-0.9c-0.3-0.4-0.5-0.9-0.5-1.5
	c0-0.4,0.1-0.7,0.2-1.1c0.2-0.3,0.4-0.6,0.7-0.9c0.3-0.3,0.7-0.5,1.2-0.6c0.5-0.1,1-0.2,1.6-0.2c0.5,0,1.1,0.1,1.6,0.2
	c0.6,0.1,1,0.3,1.4,0.5v1.6h-0.1c-0.4-0.3-0.9-0.5-1.4-0.7c-0.6-0.2-1.1-0.3-1.6-0.3c-0.6,0-1,0.1-1.4,0.3c-0.4,0.2-0.6,0.5-0.6,0.9
	c0,0.4,0.1,0.7,0.3,0.8c0.2,0.2,0.6,0.3,1.1,0.5c0.3,0.1,0.6,0.1,0.9,0.2c0.3,0.1,0.6,0.1,0.9,0.2c0.7,0.2,1.3,0.4,1.6,0.8
	C30.8,118.2,31,118.7,31,119.4"/>
<path d="M46.3,122h-1.5v-5.1c0-0.4,0-0.8-0.1-1.1c0-0.4-0.1-0.6-0.2-0.9c-0.1-0.2-0.3-0.4-0.5-0.5c-0.2-0.1-0.6-0.2-1-0.2
	c-0.4,0-0.9,0.1-1.3,0.3c-0.4,0.2-0.9,0.5-1.3,0.8c0,0.1,0,0.3,0,0.4c0,0.2,0,0.3,0,0.5v5.8H39v-5.1c0-0.4,0-0.8-0.1-1.1
	c0-0.4-0.1-0.6-0.2-0.9c-0.1-0.2-0.3-0.4-0.5-0.5c-0.2-0.1-0.6-0.2-1-0.2c-0.4,0-0.8,0.1-1.3,0.3c-0.4,0.2-0.8,0.5-1.2,0.8v6.7h-1.5
	v-9h1.5v1c0.5-0.4,0.9-0.7,1.4-0.9c0.5-0.2,1-0.3,1.5-0.3c0.6,0,1.1,0.1,1.6,0.4c0.4,0.3,0.7,0.6,1,1.1c0.6-0.5,1.2-0.9,1.7-1.1
	c0.5-0.2,1-0.3,1.6-0.3c1,0,1.7,0.3,2.2,0.9c0.5,0.6,0.7,1.4,0.7,2.5V122z"/>
<path d="M55.3,116.4c0-0.8-0.2-1.4-0.6-1.9c-0.4-0.4-1-0.7-1.8-0.7c-0.8,0-1.5,0.2-1.9,0.7c-0.5,0.5-0.8,1.1-0.8,1.8H55.3z
	 M56.8,117.6h-6.7c0,0.6,0.1,1,0.3,1.5c0.2,0.4,0.4,0.8,0.7,1c0.3,0.3,0.6,0.5,1,0.6c0.4,0.1,0.8,0.2,1.3,0.2c0.6,0,1.2-0.1,1.9-0.4
	c0.6-0.2,1.1-0.5,1.3-0.7h0.1v1.7c-0.5,0.2-1,0.4-1.6,0.5c-0.5,0.1-1.1,0.2-1.7,0.2c-1.5,0-2.7-0.4-3.5-1.2c-0.8-0.8-1.3-2-1.3-3.5
	c0-1.5,0.4-2.6,1.2-3.5c0.8-0.9,1.9-1.3,3.2-1.3c1.2,0,2.2,0.4,2.8,1.1c0.7,0.7,1,1.7,1,3V117.6z"/>
<path d="M63.8,121.9c-0.3,0.1-0.6,0.1-0.9,0.2c-0.3,0-0.6,0.1-0.9,0.1c-0.9,0-1.6-0.2-2.1-0.7c-0.5-0.5-0.7-1.3-0.7-2.4v-4.8h-1
	v-1.3h1v-2.6h1.5v2.6h3.1v1.3h-3.1v4.1c0,0.5,0,0.8,0,1.1c0,0.3,0.1,0.5,0.2,0.7c0.1,0.2,0.3,0.4,0.5,0.5c0.2,0.1,0.5,0.1,0.9,0.1
	c0.2,0,0.5,0,0.8-0.1c0.3-0.1,0.5-0.1,0.6-0.2h0.1V121.9z"/>
<polygon points="73.4,112.9 68.1,125.3 66.5,125.3 68.2,121.5 64.6,112.9 66.2,112.9 69,119.6 71.8,112.9 "/>
<polygon points="83.6,122 81.6,122 77.9,118 76.9,118.9 76.9,122 75.4,122 75.4,109.4 76.9,109.4 76.9,117.5 81.3,112.9 83.3,112.9 
	79.1,117.1 "/>
<path d="M86.7,122h-1.5v-9h1.5V122z M86.8,111.4h-1.7v-1.6h1.7V111.4z"/>
<path d="M103.1,122h-1.5v-5.1c0-0.4,0-0.8-0.1-1.2c0-0.4-0.1-0.6-0.3-0.9c-0.1-0.2-0.3-0.4-0.6-0.5c-0.3-0.1-0.6-0.2-1-0.2
	c-0.4,0-0.9,0.1-1.3,0.3c-0.5,0.2-0.9,0.5-1.3,0.8v6.7h-1.5v-9h1.5v1c0.5-0.4,1-0.7,1.5-0.9c0.5-0.2,1-0.3,1.6-0.3
	c1,0,1.7,0.3,2.2,0.9c0.5,0.6,0.8,1.4,0.8,2.5V122z"/>
<path d="M111.5,119.7v-2.5c-0.5,0-1,0.1-1.6,0.1c-0.6,0.1-1.1,0.1-1.5,0.2c-0.4,0.1-0.8,0.3-1.1,0.6c-0.3,0.3-0.4,0.6-0.4,1.1
	c0,0.5,0.2,0.9,0.5,1.2c0.3,0.3,0.8,0.4,1.4,0.4c0.5,0,1-0.1,1.5-0.3C110.7,120.3,111.1,120,111.5,119.7 M113,122h-1.5v-1
	c-0.1,0.1-0.3,0.2-0.5,0.4c-0.2,0.2-0.4,0.3-0.7,0.4c-0.3,0.1-0.5,0.2-0.9,0.3c-0.3,0.1-0.7,0.1-1.2,0.1c-0.8,0-1.5-0.3-2.1-0.8
	c-0.6-0.5-0.9-1.2-0.9-2.1c0-0.7,0.1-1.2,0.4-1.7c0.3-0.4,0.7-0.8,1.3-1c0.5-0.2,1.2-0.4,2-0.5c0.8-0.1,1.6-0.1,2.5-0.2v-0.2
	c0-0.3-0.1-0.6-0.2-0.9c-0.1-0.2-0.3-0.4-0.5-0.5c-0.2-0.1-0.5-0.2-0.8-0.3c-0.3,0-0.6-0.1-0.9-0.1c-0.4,0-0.8,0.1-1.3,0.2
	c-0.5,0.1-1,0.3-1.5,0.5h-0.1v-1.5c0.3-0.1,0.7-0.2,1.3-0.3c0.6-0.1,1.1-0.1,1.7-0.1c0.6,0,1.2,0.1,1.7,0.2c0.5,0.1,0.9,0.3,1.2,0.5
	c0.3,0.2,0.6,0.6,0.8,1c0.2,0.4,0.3,0.9,0.3,1.5V122z"/>
<path d="M120.6,121.9c-0.3,0.1-0.6,0.1-0.9,0.2c-0.3,0-0.6,0.1-0.9,0.1c-0.9,0-1.6-0.2-2.1-0.7c-0.5-0.5-0.7-1.3-0.7-2.4v-4.8h-1
	v-1.3h1v-2.6h1.5v2.6h3.1v1.3h-3.1v4.1c0,0.5,0,0.8,0,1.1c0,0.3,0.1,0.5,0.2,0.7c0.1,0.2,0.3,0.4,0.5,0.5c0.2,0.1,0.5,0.1,0.9,0.1
	c0.2,0,0.5,0,0.8-0.1c0.3-0.1,0.5-0.1,0.6-0.2h0.1V121.9z"/>
<path d="M130,122h-1.5v-1c-0.5,0.4-1,0.7-1.5,0.9c-0.5,0.2-1,0.3-1.6,0.3c-0.9,0-1.7-0.3-2.2-0.9c-0.5-0.6-0.8-1.4-0.8-2.6v-5.9h1.5
	v5.1c0,0.5,0,0.9,0.1,1.2c0,0.3,0.1,0.6,0.3,0.8c0.1,0.2,0.3,0.4,0.6,0.5c0.2,0.1,0.6,0.2,1,0.2c0.4,0,0.8-0.1,1.3-0.3
	c0.5-0.2,0.9-0.5,1.3-0.8v-6.7h1.5V122z"/>
<path d="M138.6,114.6L138.6,114.6c-0.3-0.1-0.5-0.1-0.7-0.1c-0.2,0-0.5,0-0.8,0c-0.5,0-0.9,0.1-1.4,0.3c-0.4,0.2-0.9,0.5-1.3,0.8
	v6.4H133v-9h1.5v1.3c0.6-0.5,1.1-0.8,1.6-1c0.5-0.2,0.9-0.3,1.4-0.3c0.3,0,0.5,0,0.6,0c0.1,0,0.3,0,0.5,0.1V114.6z"/>
<path d="M145.3,119.7v-2.5c-0.5,0-1,0.1-1.6,0.1c-0.6,0.1-1.1,0.1-1.5,0.2c-0.4,0.1-0.8,0.3-1.1,0.6c-0.3,0.3-0.4,0.6-0.4,1.1
	c0,0.5,0.2,0.9,0.5,1.2c0.3,0.3,0.8,0.4,1.4,0.4c0.5,0,1-0.1,1.5-0.3C144.5,120.3,144.9,120,145.3,119.7 M146.8,122h-1.5v-1
	c-0.1,0.1-0.3,0.2-0.5,0.4c-0.2,0.2-0.4,0.3-0.7,0.4c-0.3,0.1-0.5,0.2-0.9,0.3c-0.3,0.1-0.7,0.1-1.2,0.1c-0.8,0-1.5-0.3-2.1-0.8
	c-0.6-0.5-0.9-1.2-0.9-2.1c0-0.7,0.1-1.2,0.4-1.7c0.3-0.4,0.7-0.8,1.3-1c0.5-0.2,1.2-0.4,2-0.5c0.8-0.1,1.6-0.1,2.5-0.2v-0.2
	c0-0.3-0.1-0.6-0.2-0.9c-0.1-0.2-0.3-0.4-0.5-0.5c-0.2-0.1-0.5-0.2-0.8-0.3c-0.3,0-0.6-0.1-0.9-0.1c-0.4,0-0.8,0.1-1.3,0.2
	c-0.5,0.1-1,0.3-1.5,0.5h-0.1v-1.5c0.3-0.1,0.7-0.2,1.3-0.3c0.6-0.1,1.1-0.1,1.7-0.1c0.6,0,1.2,0.1,1.7,0.2c0.5,0.1,0.9,0.3,1.2,0.5
	c0.3,0.2,0.6,0.6,0.8,1c0.2,0.4,0.3,0.9,0.3,1.5V122z"/>
<rect x="149.7" y="109.4" width="1.5" height="12.6"/>
<path d="M161.8,122h-1.5v-5.1c0-0.4,0-0.8-0.1-1.2c0-0.4-0.1-0.6-0.3-0.9c-0.1-0.2-0.3-0.4-0.6-0.5c-0.3-0.1-0.6-0.2-1-0.2
	c-0.4,0-0.9,0.1-1.3,0.3c-0.5,0.2-0.9,0.5-1.3,0.8v6.7h-1.5v-9h1.5v1c0.5-0.4,1-0.7,1.5-0.9c0.5-0.2,1-0.3,1.6-0.3
	c1,0,1.7,0.3,2.2,0.9c0.5,0.6,0.8,1.4,0.8,2.5V122z"/>
<path d="M170.8,116.4c0-0.8-0.2-1.4-0.6-1.9c-0.4-0.4-1-0.7-1.8-0.7c-0.8,0-1.5,0.2-1.9,0.7c-0.5,0.5-0.8,1.1-0.8,1.8H170.8z
	 M172.3,117.6h-6.7c0,0.6,0.1,1,0.3,1.5c0.2,0.4,0.4,0.8,0.7,1c0.3,0.3,0.6,0.5,1,0.6c0.4,0.1,0.8,0.2,1.3,0.2
	c0.6,0,1.2-0.1,1.9-0.4c0.6-0.2,1.1-0.5,1.3-0.7h0.1v1.7c-0.5,0.2-1,0.4-1.6,0.5c-0.5,0.1-1.1,0.2-1.7,0.2c-1.5,0-2.7-0.4-3.5-1.2
	c-0.8-0.8-1.3-2-1.3-3.5c0-1.5,0.4-2.6,1.2-3.5c0.8-0.9,1.9-1.3,3.2-1.3c1.2,0,2.2,0.4,2.8,1.1c0.7,0.7,1,1.7,1,3V117.6z"/>
</svg>
